<?xml version="1.0" standalone="no"?>
<!DOCTYPE svg PUBLIC "-//W3C//DTD SVG 20010904//EN"
 "http://www.w3.org/TR/2001/REC-SVG-20010904/DTD/svg10.dtd">
<svg version="1.0" xmlns="http://www.w3.org/2000/svg"
 width="718.000000pt" height="718.000000pt" viewBox="0 0 718.000000 718.000000"
 preserveAspectRatio="xMidYMid meet">
<metadata>
Created by potrace 1.11, written by Peter Selinger 2001-2013
</metadata>
<g transform="translate(0.000000,718.000000) scale(0.100000,-0.100000)"
fill="#000000" stroke="none">
<path d="M0 3590 l0 -3590 3590 0 3590 0 0 3590 0 3590 -3590 0 -3590 0 0
-3590z m3813 3263 c8 -24 11 -43 7 -43 -4 0 -17 35 -30 78 -12 42 -31 104 -41
136 -10 33 -19 69 -18 80 0 12 15 -31 34 -94 18 -63 40 -134 48 -157z m55 133
c19 -34 25 -50 15 -38 -11 13 -28 40 -39 60 -10 21 -22 39 -25 42 -3 3 -11 16
-18 30 -23 47 31 -28 67 -94z m139 -216 c42 -63 114 -170 160 -238 107 -158
154 -232 148 -232 -3 0 -44 60 -92 133 -48 72 -90 134 -93 137 -10 9 -186 275
-209 315 -32 56 -4 19 86 -115z m-508 -65 l0 -20 -8 20 c-4 11 -11 34 -14 50
l-6 30 14 -30 c8 -16 14 -39 14 -50z m362 19 c5 -15 8 -29 5 -31 -2 -2 -8 10
-14 26 -13 38 -5 41 9 5z m-407 -98 c15 -151 15 -161 1 -86 -13 71 -20 158
-11 149 2 -2 7 -31 10 -63z m66 19 c0 -5 -5 -3 -10 5 -5 8 -10 20 -10 25 0 6
5 3 10 -5 5 -8 10 -19 10 -25z m407 -92 c-5 -4 -57 111 -56 123 0 5 14 -20 30
-55 16 -35 28 -66 26 -68z m-397 67 c0 -5 -2 -10 -4 -10 -3 0 -8 5 -11 10 -3
6 -1 10 4 10 6 0 11 -4 11 -10z m20 -60 c0 -13 -1 -13 -10 0 -5 8 -10 22 -10
30 0 13 1 13 10 0 5 -8 10 -22 10 -30z m402 -47 c8 -16 37 -71 65 -123 28 -52
80 -158 116 -235 35 -77 106 -225 156 -329 51 -103 90 -190 88 -192 -4 -4
-119 230 -219 446 -69 148 -137 285 -176 355 -35 62 -54 105 -47 105 2 0 10
-12 17 -27z m-322 -114 c28 -52 66 -114 85 -136 19 -23 35 -44 35 -47 0 -4 19
-34 43 -67 23 -33 49 -70 57 -82 8 -12 53 -71 100 -132 98 -127 182 -243 218
-300 42 -68 8 -26 -89 110 -51 72 -118 162 -149 200 -31 39 -87 115 -125 170
-37 55 -87 127 -110 160 -44 62 -135 226 -135 241 0 14 16 -13 70 -117z m-483
29 c6 -7 13 -51 16 -98 3 -47 13 -110 21 -140 27 -97 29 -105 22 -98 -15 13
-47 153 -52 223 -7 96 -13 124 -24 105 -19 -37 -82 -487 -79 -575 2 -86 38
-301 64 -382 13 -42 22 -79 20 -81 -2 -2 -17 40 -33 95 -33 108 -62 280 -62
367 0 76 36 368 60 490 11 54 20 100 20 102 0 9 18 3 27 -8z m353 -108 c12
-58 26 -113 31 -122 6 -11 6 -18 0 -18 -9 0 -61 199 -61 235 0 34 7 11 30 -95z
m912 -160 c94 -143 158 -251 158 -264 0 -5 -25 33 -56 85 -50 86 -122 197
-134 209 -3 3 -11 16 -19 30 -8 14 -21 36 -29 50 -42 68 14 -9 80 -110z m-864
-21 c-3 -8 -7 -3 -11 10 -4 17 -3 21 5 13 5 -5 8 -16 6 -23z m27 -66 c23 -63
35 -90 89 -207 25 -55 45 -101 43 -103 -8 -7 -157 329 -157 353 0 14 10 -3 25
-43z m-335 -53 c6 -20 6 -30 1 -24 -11 10 -27 72 -17 63 4 -4 11 -21 16 -39z
m23 -60 c3 -11 1 -18 -4 -14 -5 3 -9 12 -9 20 0 20 7 17 13 -6z m51 -108 c21
-41 32 -71 26 -67 -9 6 -70 129 -70 143 0 10 8 -3 44 -76z m1281 -2 c9 -16 13
-30 11 -30 -3 0 -12 14 -21 30 -9 17 -13 30 -11 30 3 0 12 -13 21 -30z m55
-110 c0 -8 -9 3 -20 25 -25 50 -25 58 0 20 11 -16 20 -37 20 -45z m-1222 -66
c47 -63 55 -83 17 -42 -14 15 -25 31 -25 36 0 5 -7 15 -14 22 -8 6 -24 28 -36
48 -22 40 -18 36 58 -64z m297 66 c3 -5 1 -10 -4 -10 -6 0 -11 5 -11 10 0 6 2
10 4 10 3 0 8 -4 11 -10z m15 -35 c7 -9 8 -15 2 -15 -5 0 -12 7 -16 15 -3 8
-4 15 -2 15 2 0 9 -7 16 -15z m967 -118 c-2 -6 -14 19 -27 54 -35 90 -34 93 1
20 16 -34 28 -68 26 -74z m-2220 43 c-3 -38 -11 -78 -17 -87 -10 -16 -11 -16
-5 2 3 11 8 49 11 85 4 63 4 64 -10 35 -16 -31 -20 -26 -10 13 4 12 13 22 22
22 12 0 14 -11 9 -70z m1303 -32 c22 -45 38 -84 36 -86 -3 -3 -50 87 -84 161
-2 4 -1 7 2 7 3 0 24 -37 46 -82z m618 -20 c7 -17 8 -28 2 -28 -6 0 -10 1 -10
3 0 1 -4 18 -10 36 -11 38 0 31 18 -11z m-1985 -30 c-13 -35 -29 -74 -33 -88
-5 -14 -9 -18 -9 -10 -2 20 52 160 61 160 3 0 -5 -28 -19 -62z m470 -60 c10
-62 20 -124 24 -138 3 -14 2 -21 -2 -17 -5 4 -10 13 -11 20 -7 37 -34 214 -34
227 -1 11 -4 10 -12 -4 -14 -24 -4 -429 11 -469 6 -15 7 -27 2 -27 -15 0 -20
50 -27 265 -7 205 -2 255 25 255 4 0 15 -51 24 -112z m657 25 c22 -24 35 -43
31 -43 -4 0 -25 21 -47 48 -43 52 -70 90 -41 57 11 -11 36 -39 57 -62z m725
-44 c44 -74 80 -149 71 -149 -3 0 -17 26 -32 58 -15 31 -40 76 -55 99 -16 23
-29 46 -29 52 0 6 -4 11 -8 11 -5 0 -14 12 -21 28 l-12 27 20 -25 c12 -14 41
-59 66 -101z m183 -28 c17 -46 27 -80 22 -75 -5 5 -23 47 -40 94 -17 47 -27
81 -22 75 5 -5 23 -48 40 -94z m277 52 c5 -21 9 -44 11 -51 1 -8 0 -12 -3 -9
-2 3 -4 8 -4 11 0 3 -6 24 -14 46 -8 22 -10 40 -6 40 5 0 12 -17 16 -37z
m-2268 -5 c-3 -7 -5 -2 -5 12 0 14 2 19 5 13 2 -7 2 -19 0 -25z m1402 -58 c0
-9 -6 -4 -14 10 -19 33 -19 49 0 24 8 -10 14 -26 14 -34z m3 -264 c5 -12 -14
6 -43 39 -30 33 -96 102 -146 153 -51 51 -93 96 -93 100 1 11 269 -268 282
-292z m-1511 169 c-11 -44 -20 -72 -20 -62 -1 24 31 165 35 152 2 -5 -5 -46
-15 -90z m1539 35 c11 -22 18 -40 15 -40 -2 0 -14 18 -25 40 -11 22 -18 40
-15 40 2 0 14 -18 25 -40z m-736 -49 c-6 -6 -11 1 -18 29 l-7 25 15 -25 c8
-14 12 -27 10 -29z m1606 -161 c0 -104 -3 -191 -7 -193 -5 -3 -8 84 -8 193 0
109 3 196 8 193 4 -2 7 -89 7 -193z m-264 15 c7 -120 -1 -225 -18 -225 -6 0
-7 8 -2 23 10 27 11 218 2 312 -5 50 -4 60 2 35 5 -19 12 -85 16 -145z m-2038
140 c-3 -3 -9 2 -12 12 -6 14 -5 15 5 6 7 -7 10 -15 7 -18z m471 -53 c7 -24
10 -47 7 -50 -3 -3 -6 -1 -6 4 0 5 -7 31 -15 59 -9 27 -12 45 -7 40 5 -6 14
-30 21 -53z m1010 18 c10 -22 16 -40 12 -40 -5 0 -15 18 -24 40 -8 22 -14 40
-11 40 2 0 12 -18 23 -40z m462 -84 c22 -54 38 -103 37 -108 -2 -5 -24 43 -49
107 -25 64 -42 112 -37 107 5 -5 27 -53 49 -106z m-1907 -10 c14 -44 22 -76
17 -70 -4 5 -20 45 -35 88 -14 44 -22 76 -17 70 4 -5 20 -45 35 -88z m752 -45
c55 -103 103 -182 122 -204 8 -9 13 -19 10 -22 -5 -6 -67 87 -110 165 -59 106
-97 183 -81 161 10 -13 36 -58 59 -100z m-919 -123 c-1 -46 -3 -11 -3 77 0 88
2 125 3 83 2 -42 2 -114 0 -160z m1659 160 c29 -57 94 -232 94 -251 -1 -7 -20
40 -44 103 -23 63 -52 134 -64 158 -12 23 -20 42 -17 42 2 0 16 -23 31 -52z
m-983 -111 c25 -53 42 -95 36 -92 -9 6 -20 29 -68 139 -20 46 -26 64 -17 55 2
-2 24 -48 49 -102z m943 -29 c8 -16 11 -28 6 -28 -4 0 -13 12 -19 28 -7 15
-20 38 -29 52 l-16 25 21 -25 c12 -14 28 -37 37 -52z m-1406 20 c0 -4 -5 -8
-12 -8 -6 0 -8 3 -5 6 3 4 2 16 -4 28 -10 20 -10 20 5 2 9 -11 16 -23 16 -28z
m334 -4 c3 -8 2 -12 -4 -9 -6 3 -10 10 -10 16 0 14 7 11 14 -7z m1586 -14 c0
-5 -2 -10 -4 -10 -3 0 -8 5 -11 10 -3 6 -1 10 4 10 6 0 11 -4 11 -10z m10 -35
c0 -8 -2 -15 -4 -15 -2 0 -6 7 -10 15 -3 8 -1 15 4 15 6 0 10 -7 10 -15z
m-1871 -56 c13 -23 19 -39 13 -35 -6 4 -19 22 -28 41 -9 19 -20 35 -25 35 -5
0 -9 5 -9 11 0 19 23 -6 49 -52z m324 -54 c1 -5 15 -29 30 -53 16 -24 27 -45
24 -48 -15 -15 -99 169 -96 211 0 9 38 -88 42 -110z m1097 7 c22 -45 40 -86
40 -90 -1 -12 -70 121 -70 134 0 6 -7 17 -15 24 -8 7 -15 17 -15 23 0 21 19
-8 60 -91z m-887 -47 c36 -49 127 -151 202 -225 76 -74 141 -144 145 -155 20
-54 18 -65 -4 -20 -17 33 -70 95 -156 180 -72 72 -154 162 -183 200 -28 39
-54 72 -58 75 -3 3 -12 16 -19 30 -18 36 -1 16 73 -85z m1614 43 c-3 -8 -6 -5
-6 6 -1 11 2 17 5 13 3 -3 4 -12 1 -19z m-2330 -187 c20 -36 41 -73 48 -81 21
-26 29 -44 17 -36 -32 20 -152 262 -151 306 0 8 12 -16 26 -54 14 -38 41 -99
60 -135z m395 14 c37 -27 66 -50 64 -53 -4 -3 -66 41 -138 99 -20 17 -56 53
-79 82 -38 47 -36 46 22 -14 35 -36 94 -87 131 -114z m640 73 c83 -131 84
-133 69 -124 -6 4 -32 42 -57 84 -25 42 -54 92 -66 110 -11 17 -18 32 -15 32
3 0 34 -46 69 -102z m652 -3 c3 -23 2 -34 -3 -25 -5 8 -11 40 -14 70 -7 61 7
26 17 -45z m619 -15 c-9 -34 -18 -59 -20 -56 -7 6 22 116 31 116 2 0 -3 -27
-11 -60z m-638 -21 c5 -23 10 -28 16 -18 6 10 8 7 6 -9 -2 -30 -13 -28 -25 6
-5 15 -13 36 -18 46 -5 13 -4 17 4 13 6 -4 14 -21 17 -38z m-1050 -64 c21 -38
33 -65 27 -60 -5 6 -27 42 -48 80 -20 39 -33 66 -27 60 6 -5 27 -41 48 -80z
m1639 -54 c-15 -34 -29 -60 -31 -58 -2 3 8 32 23 66 15 34 29 60 31 58 2 -3
-8 -32 -23 -66z m-1689 -16 c92 -47 118 -63 73 -46 -30 11 -136 65 -158 80
-32 22 1 9 85 -34z m602 -55 c52 -115 66 -171 68 -280 l3 -105 -8 105 c-9 114
-31 192 -85 303 -19 40 -28 63 -19 52 9 -11 27 -45 41 -75z m-488 1 c0 -14 -1
-14 -6 -1 -3 8 -10 24 -15 35 -9 20 -9 20 6 1 9 -11 16 -27 15 -35z m-471
-139 c35 -35 62 -66 59 -68 -6 -6 -150 148 -177 189 -13 19 -6 13 16 -13 21
-25 67 -73 102 -108z m1962 38 c-29 -51 -64 -104 -77 -118 -31 -34 -26 -24 29
58 24 36 54 86 68 112 13 26 26 45 28 43 2 -2 -19 -45 -48 -95z m-1061 -164
c6 -33 11 -74 11 -91 0 -34 -29 -140 -36 -133 -2 3 3 27 11 54 18 60 18 100 1
182 -7 34 -9 59 -5 55 4 -4 12 -35 18 -67z m-757 -1 c83 -67 91 -75 48 -46
-25 16 -63 47 -85 67 -43 39 -23 28 37 -21z m1709 -2 c-5 -10 -47 -54 -93 -98
-45 -44 -80 -77 -78 -73 7 10 174 187 178 187 1 1 -2 -7 -7 -16z m-1551 -109
c0 -2 -13 2 -30 11 -16 9 -30 18 -30 21 0 2 14 -2 30 -11 17 -9 30 -18 30 -21z
m85 -49 c19 -15 18 -15 -10 -1 -16 8 -39 22 -50 31 -19 15 -18 15 10 1 17 -8
39 -22 50 -31z m630 -24 c-9 -65 -72 -196 -116 -240 l-34 -34 90 5 c95 6 260
39 360 73 11 3 8 -1 -8 -10 -24 -14 -116 -37 -261 -65 -59 -12 -186 -13 -186
-2 0 5 14 21 31 38 43 40 96 150 111 228 14 76 23 80 13 7z m-520 -32 c6 -6
-8 -3 -30 6 -22 9 -44 21 -50 27 -5 5 8 2 30 -7 22 -9 45 -21 50 -26z m1165
26 c-7 -9 -15 -13 -19 -10 -3 3 1 10 9 15 21 14 24 12 10 -5z m-45 -35 c-23
-22 -186 -122 -192 -116 -2 2 39 29 91 60 52 31 98 61 101 66 3 6 9 10 13 10
3 0 -2 -9 -13 -20z m-1049 -26 c58 -30 99 -73 114 -120 7 -19 15 -34 19 -32
23 10 102 78 120 103 52 71 53 73 37 40 -23 -48 -133 -155 -159 -155 -8 0 -18
12 -22 28 -12 51 -49 93 -107 123 -32 16 -58 31 -58 34 0 8 5 6 56 -21z m815
-109 c-18 -8 -36 -15 -40 -15 -13 1 45 29 59 29 8 0 0 -6 -19 -14z m388 -372
c-2 -24 -2 -25 -6 -5 l-4 22 -814 -2 c-447 -2 -811 0 -808 5 2 4 371 7 819 7
l814 0 -1 -27z m-1622 -35 c-3 -7 -5 -2 -5 12 0 14 2 19 5 13 2 -7 2 -19 0
-25z m1597 -82 c-10 -42 -19 -74 -22 -72 -2 3 4 39 13 81 10 42 19 74 22 71 3
-2 -3 -39 -13 -80z m-1576 9 c0 -16 -2 -15 -8 5 -11 34 -11 60 0 35 5 -11 8
-29 8 -40z m15 -45 c3 -11 1 -20 -4 -20 -5 0 -9 9 -9 20 0 11 2 20 4 20 2 0 6
-9 9 -20z m4 -52 c-3 -8 -6 -5 -6 6 -1 11 2 17 5 13 3 -3 4 -12 1 -19z m1530
-20 c-3 -8 -6 -5 -6 6 -1 11 2 17 5 13 3 -3 4 -12 1 -19z m-1509 -53 c0 -16
-2 -15 -8 5 -11 34 -11 60 0 35 5 -11 8 -29 8 -40z m1491 -29 c-7 -31 -14 -54
-16 -52 -3 3 1 30 8 60 7 31 14 54 16 52 3 -3 -1 -30 -8 -60z m-1471 -61 c0
-16 -2 -15 -8 5 -4 14 -8 34 -8 45 0 16 2 15 8 -5 4 -14 8 -34 8 -45z m1449
-27 c-3 -8 -6 -5 -6 6 -1 11 2 17 5 13 3 -3 4 -12 1 -19z m-1440 -20 c-3 -8
-6 -5 -6 6 -1 11 2 17 5 13 3 -3 4 -12 1 -19z m1422 -63 c-7 -31 -15 -58 -19
-60 -4 -2 0 25 8 60 9 36 18 63 20 61 2 -3 -2 -30 -9 -61z m-1390 -65 c0 -8
-7 8 -15 35 -7 28 -13 57 -13 65 0 8 7 -7 15 -35 7 -27 13 -57 13 -65z m30
-130 c0 -8 -7 8 -15 35 -7 28 -13 57 -13 65 0 8 7 -7 15 -35 7 -27 13 -57 13
-65z m1320 26 c-7 -31 -14 -54 -16 -52 -3 3 1 30 8 60 7 31 14 54 16 52 3 -3
-1 -30 -8 -60z m-1296 -125 c-6 -8 -11 5 -17 44 l-6 40 13 -40 c8 -22 12 -42
10 -44z m1261 -25 c-10 -42 -19 -74 -21 -72 -3 2 3 39 12 81 10 42 19 74 21
72 3 -2 -3 -39 -12 -81z m-1241 -53 c8 -29 11 -53 7 -53 -7 0 -11 15 -26 100
-6 38 4 12 19 -47z m1214 -55 c-3 -8 -6 -5 -6 6 -1 11 2 17 5 13 3 -3 4 -12 1
-19z m-1183 -76 c19 -75 20 -118 1 -51 -16 59 -28 126 -22 119 3 -3 12 -33 21
-68z m1165 -6 c-7 -31 -14 -54 -16 -52 -3 3 1 30 8 60 7 31 14 54 16 52 3 -3
-1 -30 -8 -60z m-30 -130 c-7 -31 -14 -54 -17 -51 -3 3 1 30 8 60 7 30 15 53
18 51 2 -3 -2 -30 -9 -60z m-1112 12 c-3 -8 -6 -5 -6 6 -1 11 2 17 5 13 3 -3
4 -12 1 -19z m32 -128 c0 -8 -7 8 -15 35 -7 28 -13 57 -13 65 0 8 7 -7 15 -35
7 -27 13 -57 13 -65z m1058 28 c-3 -8 -6 -5 -6 6 -1 11 2 17 5 13 3 -3 4 -12
1 -19z m-23 -102 c-10 -42 -19 -74 -22 -72 -2 3 4 39 14 80 10 42 19 74 22 72
2 -3 -4 -39 -14 -80z m-1021 34 c3 -11 1 -20 -4 -20 -5 0 -9 9 -9 20 0 11 2
20 4 20 2 0 6 -9 9 -20z m25 -125 c0 -11 -6 3 -14 30 -7 28 -13 55 -13 60 2
17 27 -69 27 -90z m956 -79 c-10 -42 -19 -74 -22 -72 -2 3 4 39 14 80 10 42
19 74 22 72 2 -3 -4 -39 -14 -80z m-941 34 c3 -11 1 -20 -4 -20 -5 0 -9 9 -9
20 0 11 2 20 4 20 2 0 6 -9 9 -20z m15 -85 c0 -16 -2 -15 -8 5 -11 34 -11 60
0 35 5 -11 8 -29 8 -40z m25 -105 l7 -45 -15 50 c-8 28 -14 57 -14 65 1 26 16
-22 22 -70z m872 26 c-4 -20 -11 -36 -15 -36 -4 0 -2 18 3 40 13 48 21 46 12
-4z m-24 -87 c-6 -24 -9 -28 -10 -12 -1 24 9 56 16 50 2 -3 0 -20 -6 -38z
m-834 -11 c-3 -8 -6 -5 -6 6 -1 11 2 17 5 13 3 -3 4 -12 1 -19z m32 -128 c0
-8 -7 8 -15 35 -7 28 -13 57 -13 65 0 8 7 -7 15 -35 7 -27 13 -57 13 -65z
m780 36 c-7 -31 -15 -56 -19 -56 -4 0 0 27 9 60 19 74 27 71 10 -4z m-750
-166 c0 -8 -7 8 -15 35 -7 28 -13 57 -13 65 0 8 7 -7 15 -35 7 -27 13 -57 13
-65z m723 68 c-8 -8 -9 -4 -5 13 4 13 8 18 11 10 2 -7 -1 -18 -6 -23z m-11
-41 c-10 -9 -11 -8 -5 6 3 10 9 15 12 12 3 -3 0 -11 -7 -18z m-7 -55 c-4 -18
-10 -32 -14 -32 -5 0 -3 16 3 35 13 42 20 40 11 -3z m-697 -14 c-3 -8 -6 -5
-6 6 -1 11 2 17 5 13 3 -3 4 -12 1 -19z m21 -83 c0 -16 -2 -15 -8 5 -4 14 -8
34 -8 45 0 16 2 15 8 -5 4 -14 8 -34 8 -45z m659 33 c-3 -8 -6 -5 -6 6 -1 11
2 17 5 13 3 -3 4 -12 1 -19z m-10 -40 c-3 -8 -6 -5 -6 6 -1 11 2 17 5 13 3 -3
4 -12 1 -19z m-622 -94 c9 -41 15 -78 12 -80 -2 -2 -9 22 -16 53 -7 32 -15 68
-18 81 -3 12 -3 22 0 22 3 0 13 -34 22 -76z m612 44 c-3 -7 -5 -2 -5 12 0 14
2 19 5 13 2 -7 2 -19 0 -25z m-7 -33 c0 -8 -4 -15 -10 -15 -5 0 -7 7 -4 15 4
8 8 15 10 15 2 0 4 -7 4 -15z m-16 -64 c-4 -17 -9 -30 -11 -27 -3 2 -2 19 2
36 9 41 17 33 9 -9z m-515 -281 c-1 -8 -14 37 -30 100 -15 63 -28 122 -27 130
0 8 13 -37 29 -100 16 -63 28 -122 28 -130z m490 176 c-7 -31 -14 -54 -16 -52
-3 3 1 30 8 60 7 31 14 54 16 52 3 -3 -1 -30 -8 -60z m-22 -88 c-3 -8 -6 -5
-6 6 -1 11 2 17 5 13 3 -3 4 -12 1 -19z m-12 -62 c-4 -20 -11 -36 -15 -36 -4
0 -2 18 3 40 13 48 21 46 12 -4z m-432 -125 c-6 -8 -11 5 -17 44 l-6 40 13
-40 c8 -22 12 -42 10 -44z m409 47 c-8 -8 -9 -4 -5 13 4 13 8 18 11 10 2 -7
-1 -18 -6 -23z m-28 -132 c-10 -42 -19 -74 -22 -72 -2 3 4 39 14 80 10 42 19
74 22 72 2 -3 -4 -39 -14 -80z m-366 19 c0 -16 -2 -15 -8 5 -11 34 -11 60 0
35 5 -11 8 -29 8 -40z m20 -90 c0 -16 -2 -15 -8 5 -4 14 -8 34 -8 45 0 16 2
15 8 -5 4 -14 8 -34 8 -45z m311 -79 c-7 -31 -15 -56 -19 -56 -4 0 0 27 9 60
19 74 27 71 10 -4z m-284 -22 c9 -41 15 -78 12 -80 -2 -2 -9 22 -16 53 -7 32
-15 68 -18 81 -3 12 -3 22 0 22 3 0 13 -34 22 -76z m249 -128 c-10 -42 -19
-74 -22 -72 -2 3 4 39 14 80 10 42 19 74 22 72 2 -3 -4 -39 -14 -80z m-209
-42 c9 -41 15 -78 12 -80 -2 -2 -9 22 -16 53 -7 32 -15 68 -18 81 -3 12 -3 22
0 22 3 0 13 -34 22 -76z m185 -64 c0 -11 -4 -20 -9 -20 -5 0 -7 9 -4 20 3 11
7 20 9 20 2 0 4 -9 4 -20z m-146 -103 c9 -38 16 -74 15 -80 -1 -15 -38 122
-39 142 0 28 9 5 24 -62z m124 15 c-6 -29 -13 -50 -16 -47 -2 2 1 27 8 55 7
28 14 49 16 47 3 -2 -1 -27 -8 -55z m-26 -94 c-8 -8 -9 -4 -5 13 4 13 8 18 11
10 2 -7 -1 -18 -6 -23z m-64 -83 c0 -16 -2 -15 -8 5 -4 14 -8 34 -8 45 0 16 2
15 8 -5 4 -14 8 -34 8 -45z m48 0 c-8 -31 -18 -60 -22 -63 -3 -4 -4 2 -1 13 3
11 11 42 18 68 6 26 14 46 16 43 2 -2 -3 -30 -11 -61z m-39 -47 c-3 -8 -6 -5
-6 6 -1 11 2 17 5 13 3 -3 4 -12 1 -19z"/>
</g>
</svg>
